<?xml version="1.0" standalone="no"?>
<svg xmlns:xlink="http://www.w3.org/1999/xlink" id="wave" style="transform:rotate(0deg); transition: 0.3s" viewBox="0 0 1440 250" version="1.1" xmlns="http://www.w3.org/2000/svg"><defs><linearGradient id="sw-gradient-0" x1="0" x2="0" y1="1" y2="0"><stop stop-color="rgba(18, 79, 136, 1)" offset="0%"/><stop stop-color="rgba(255, 255, 255, 1)" offset="100%"/></linearGradient></defs><path style="transform:translate(0, 0px); opacity:1" fill="url(#sw-gradient-0)" d="M0,125L720,200L1440,25L2160,175L2880,225L3600,0L4320,175L5040,225L5760,0L6480,0L7200,0L7920,25L8640,125L9360,125L10080,100L10800,125L11520,0L12240,200L12960,225L13680,200L14400,0L15120,75L15840,25L16560,25L17280,50L17280,250L16560,250L15840,250L15120,250L14400,250L13680,250L12960,250L12240,250L11520,250L10800,250L10080,250L9360,250L8640,250L7920,250L7200,250L6480,250L5760,250L5040,250L4320,250L3600,250L2880,250L2160,250L1440,250L720,250L0,250Z"/></svg>